<?xml version="1.0" encoding="UTF-8" ?>
<svg version="1.1" width="48" height="48" xmlns="http://www.w3.org/2000/svg" shape-rendering="crispEdges">
<rect x="15" y="9" width="3" height="3" fill="#892CDC" />
<rect x="12" y="12" width="3" height="3" fill="#892CDC" />
<rect x="15" y="12" width="3" height="3" fill="#892CDC" />
<rect x="9" y="15" width="3" height="3" fill="#892CDC" />
<rect x="12" y="15" width="3" height="3" fill="#892CDC" />
<rect x="15" y="15" width="3" height="3" fill="#892CDC" />
<rect x="6" y="18" width="3" height="3" fill="#892CDC" />
<rect x="9" y="18" width="3" height="3" fill="#892CDC" />
<rect x="12" y="18" width="3" height="3" fill="#892CDC" />
<rect x="15" y="18" width="3" height="3" fill="#892CDC" />
<rect x="18" y="18" width="3" height="3" fill="#892CDC" />
<rect x="21" y="18" width="3" height="3" fill="#892CDC" />
<rect x="24" y="18" width="3" height="3" fill="#892CDC" />
<rect x="27" y="18" width="3" height="3" fill="#892CDC" />
<rect x="30" y="18" width="3" height="3" fill="#892CDC" />
<rect x="33" y="18" width="3" height="3" fill="#892CDC" />
<rect x="36" y="18" width="3" height="3" fill="#892CDC" />
<rect x="39" y="18" width="3" height="3" fill="#892CDC" />
<rect x="3" y="21" width="3" height="3" fill="#892CDC" />
<rect x="6" y="21" width="3" height="3" fill="#892CDC" />
<rect x="9" y="21" width="3" height="3" fill="#892CDC" />
<rect x="12" y="21" width="3" height="3" fill="#892CDC" />
<rect x="15" y="21" width="3" height="3" fill="#892CDC" />
<rect x="18" y="21" width="3" height="3" fill="#892CDC" />
<rect x="21" y="21" width="3" height="3" fill="#892CDC" />
<rect x="24" y="21" width="3" height="3" fill="#892CDC" />
<rect x="27" y="21" width="3" height="3" fill="#892CDC" />
<rect x="30" y="21" width="3" height="3" fill="#892CDC" />
<rect x="33" y="21" width="3" height="3" fill="#892CDC" />
<rect x="36" y="21" width="3" height="3" fill="#892CDC" />
<rect x="39" y="21" width="3" height="3" fill="#892CDC" />
<rect x="6" y="24" width="3" height="3" fill="#892CDC" />
<rect x="9" y="24" width="3" height="3" fill="#892CDC" />
<rect x="12" y="24" width="3" height="3" fill="#892CDC" />
<rect x="15" y="24" width="3" height="3" fill="#892CDC" />
<rect x="18" y="24" width="3" height="3" fill="#892CDC" />
<rect x="21" y="24" width="3" height="3" fill="#892CDC" />
<rect x="24" y="24" width="3" height="3" fill="#892CDC" />
<rect x="27" y="24" width="3" height="3" fill="#892CDC" />
<rect x="30" y="24" width="3" height="3" fill="#892CDC" />
<rect x="33" y="24" width="3" height="3" fill="#892CDC" />
<rect x="36" y="24" width="3" height="3" fill="#892CDC" />
<rect x="39" y="24" width="3" height="3" fill="#892CDC" />
<rect x="9" y="27" width="3" height="3" fill="#892CDC" />
<rect x="12" y="27" width="3" height="3" fill="#892CDC" />
<rect x="15" y="27" width="3" height="3" fill="#892CDC" />
<rect x="12" y="30" width="3" height="3" fill="#892CDC" />
<rect x="15" y="30" width="3" height="3" fill="#892CDC" />
<rect x="15" y="33" width="3" height="3" fill="#892CDC" />
</svg>